<?xml version="1.0" encoding="utf-8"?>
<!-- Generator: Adobe Illustrator 26.2.1, SVG Export Plug-In . SVG Version: 6.00 Build 0)  -->
<svg version="1.1" id="Layer_1" xmlns="http://www.w3.org/2000/svg" xmlns:xlink="http://www.w3.org/1999/xlink" x="0px" y="0px"
	 viewBox="0 0 483.53 1360.61" style="enable-background:new 0 0 483.53 1360.61;" xml:space="preserve">
<style type="text/css">
	.st0{fill:#F6B7BA;}
	.st1{fill:#313043;}
	.st2{fill:#575FA8;}
</style>
<polygon class="st0" points="298.4,1312.22 342.08,1312.22 362.89,1144.2 298.4,1144.2 "/>
<path class="st1" d="M426.09,1352.82H289.15l0,0v-52.93l0,0h84.01C402.45,1299.89,426.09,1323.53,426.09,1352.82L426.09,1352.82
	L426.09,1352.82z"/>
<polygon class="st0" points="66.66,1304 109.82,1309.65 152.47,1145.74 88.75,1137.26 "/>
<path class="st1" d="M187.67,1360.78L51.76,1342.8l0,0l6.94-52.41l0,0l83.24,11.05C171.22,1305.29,191.52,1332.01,187.67,1360.78
	L187.67,1360.78L187.67,1360.78L187.67,1360.78z"/>
<polygon class="st1" points="128.58,617.77 373.93,628.31 363.14,1250.82 299.17,1243.63 249.33,820.48 131.92,1272.14 
	67.94,1261.35 "/>
<path class="st2" d="M291.98,247.81l-85.3-17.47l-53.44,390.77c0,0,156.46,103.02,206.31-3.6L291.98,247.81z"/>
<circle class="st0" cx="254.72" cy="114.73" r="87.35"/>
<path class="st1" d="M206.68,226.49L82.33,265.54c0,0,60.38,302.14-39.05,458.86c0,0,124.35,131.54,177.79-163.66
	C221.07,560.74,263.72,322.57,206.68,226.49z"/>
<path class="st1" d="M291.98,247.81l92.49,56.78c0,0,49.84,415.95,0,455.26C334.62,799.16,291.98,247.81,291.98,247.81z"/>
<path class="st0" d="M423,820.22c-14.39-13.62-14.9-36.23-1.28-50.61c1.54-1.54,3.08-2.83,4.62-4.11l-37.51-121.27l63.46,18.5
	l25.95,112.53c10.79,16.7,5.65,39.05-11.05,49.59C453.32,833.58,434.82,831.79,423,820.22z"/>
<path class="st0" d="M103.65,785.28c-15.93-11.56-19.53-33.91-7.71-50.1c1.28-1.8,2.57-3.34,4.11-4.62L47.12,614.95l65.26,10.28
	l40.08,108.16c12.85,15.16,10.79,38.02-4.62,50.61C135.26,794.53,117.01,795.05,103.65,785.28L103.65,785.28z"/>
<polygon class="st1" points="114.19,269.39 82.33,265.79 0.37,532.48 82.33,717.2 146.3,678.15 75.14,525.28 131.92,361.62 "/>
<polygon class="st1" points="366.74,301.25 384.47,304.85 469.76,720.8 412.98,738.78 345.42,493.42 "/>
<path class="st1" d="M194.86,150.44c2.31-17.47,13.87-32.37,30.06-39.31c16.7-6.94,35.71-3.85,53.95-2.57s38.28,0.26,51.38-12.33
	c12.08-11.56,14.64-30.57,8.99-46.25c-5.65-15.67-18.76-27.75-33.66-35.2c-15.16-6.94-31.34-11.3-47.79-12.59
	c-24.15-2.83-49.07-3.34-72.71,2.83c-23.64,6.17-17.47,19.27-31.34,39.57c-13.87,20.04-17.98,47.53-7.45,69.37
	c6.94,14.64,19.78,25.95,32.11,36.48"/>
</svg>
