<?xml version="1.0" encoding="utf-8"?>
<!-- Generator: Adobe Illustrator 21.0.0, SVG Export Plug-In . SVG Version: 6.00 Build 0)  -->
<svg version="1.1" id="Layer_1" xmlns="http://www.w3.org/2000/svg" xmlns:xlink="http://www.w3.org/1999/xlink" x="0px" y="0px"
	 viewBox="0 0 1920 1080" style="enable-background:new 0 0 1920 1080;" xml:space="preserve">
<style type="text/css">
	.st0{fill:#FFFFFF;}
	.st1{fill:none;}
	.st2{clip-path:url(#SVGID_2_);}
	.st3{fill:#C4D9E1;}
	.st4{clip-path:url(#SVGID_2_);fill:#E6E6E6;}
	.st5{clip-path:url(#SVGID_2_);fill:#FFFFFF;}
	.st6{clip-path:url(#SVGID_2_);fill:#C4D9E1;}
	.st7{fill:#E6E6E6;}
</style>
<rect class="st0" width="1920" height="1080"/>
<rect class="st1" width="1920" height="1080"/>
<g>
	<defs>
		<rect id="SVGID_1_" width="1920" height="1080"/>
	</defs>
	<clipPath id="SVGID_2_">
		<use xlink:href="#SVGID_1_"  style="overflow:visible;"/>
	</clipPath>
	<g class="st2">
		<path class="st3" d="M-657.5,1110.1c-14.7,40.8-19.1,86-10.7,131.7c25.4,137.7,157.7,228.8,295.4,203.4
			c84.1-15.5,150.8-70.9,184.2-143c32.6,31.2,79.1,46.8,126.8,37.9c19.2-3.5,36.9-10.7,52.3-20.7c37.9,117.2,157.8,191,282.2,168
			c89.1-16.5,158.3-78.4,188-157.5c34.5,66.5,109.4,105.6,186.9,91.3c81.9-15.1,139.9-85.1,142.9-165.1
			c35.2,38,88.6,57.5,143.2,47.1c59.8-11.4,105-55.6,120.5-110.3c8.6,1.5,17.4,2.3,26.3,2.4c85.2,0.5,154.6-68.2,155.1-153.4
			c0.5-85.2-68.2-154.6-153.4-155.1c-52-0.3-98.2,25.2-126.3,64.5c-15.9-22.3-42-36.9-71.5-37.1c-11.9-0.1-23.2,2.2-33.6,6.4
			c-9.3-74.3-72.5-132-149.5-132.5c-55.1-0.3-103.5,28.8-130.3,72.7c-13-43.6-53.4-75.6-101.3-75.8c-50.7-0.3-93.3,35-104.2,82.4
			c-16.7-26.7-46.4-44.5-80.2-44.5c-8.2,0-16.1,1-23.7,3c2.2-11.9,3.4-24.1,3.4-36.6c0-109.9-89.1-199-199-199
			c-84.6,0-156.8,52.8-185.6,127.2c-22.6-14.7-49.5-23.3-78.5-23.3c-77.7,0-141,61.7-143.7,138.8c-2.9-0.4-5.9-0.7-8.9-0.7
			c-26.7,0-49.3,17.1-57.6,41c-19.4-22.5-48-36.9-80-37c-58.7-0.3-106.6,47-106.9,105.7c0,3.4,0.1,6.7,0.4,10
			c-14.8-11.3-33.2-18.1-53.2-18.2c-48.8-0.3-88.6,39.1-88.8,87.8C-736.9,1067.5-702.2,1105.4-657.5,1110.1z"/>
		<path class="st3" d="M993.8,1079c-14.7,40.8-19.1,86-10.7,131.7c25.4,137.7,157.7,228.8,295.4,203.4
			c84.1-15.5,150.8-70.9,184.2-143c32.6,31.2,79.1,46.8,126.8,37.9c19.2-3.5,36.9-10.7,52.3-20.7c37.9,117.2,157.8,191,282.2,168
			c89.1-16.5,158.3-78.4,188-157.5c34.5,66.5,109.4,105.6,186.9,91.3c81.9-15.1,139.9-85.1,142.9-165.1
			c35.2,38,88.6,57.5,143.2,47.1c59.8-11.4,105-55.6,120.5-110.3c8.6,1.5,17.4,2.3,26.3,2.4c85.2,0.5,154.6-68.2,155.1-153.4
			c0.5-85.2-68.2-154.6-153.4-155.1c-52-0.3-98.2,25.2-126.3,64.5c-15.9-22.3-42-36.9-71.5-37.1c-11.9-0.1-23.2,2.2-33.6,6.4
			c-9.3-74.3-72.5-132-149.5-132.5c-55.1-0.3-103.5,28.8-130.3,72.7c-13-43.6-53.4-75.6-101.3-75.8c-50.7-0.3-93.3,35-104.2,82.4
			c-16.7-26.7-46.4-44.5-80.2-44.5c-8.2,0-16.1,1-23.7,3c2.2-11.9,3.4-24.1,3.4-36.6c0-109.9-89.1-199-199-199
			c-84.6,0-156.8,52.8-185.6,127.2c-22.6-14.7-49.5-23.3-78.5-23.3c-77.7,0-141,61.7-143.7,138.8c-2.9-0.4-5.9-0.7-8.9-0.7
			c-26.7,0-49.3,17.1-57.6,41c-19.4-22.5-48-36.9-80-37c-58.7-0.3-106.6,47-106.9,105.7c0,3.4,0.1,6.7,0.4,10
			c-14.8-11.3-33.2-18.1-53.2-18.2c-48.8-0.3-88.6,39.1-88.8,87.8C914.5,1036.5,949.2,1074.3,993.8,1079z"/>
	</g>
	<path class="st4" d="M26.5,1207.4c-16.6,46.2-21.6,97.2-12.1,148.9c28.7,155.7,178.3,258.6,334,229.9
		c95.1-17.5,170.5-80.1,208.2-161.7c36.8,35.2,89.5,52.9,143.4,42.9c21.7-4,41.7-12.1,59.2-23.4c42.9,132.5,178.3,215.9,319,189.9
		c100.7-18.6,178.9-88.6,212.6-178c39,75.1,123.7,119.4,211.2,103.2c92.6-17.1,158.1-96.2,161.6-186.6
		c39.8,42.9,100.1,65,161.9,53.3c67.6-12.9,118.7-62.8,136.2-124.7c9.7,1.7,19.6,2.7,29.8,2.7c96.3,0.5,174.8-77.1,175.3-173.4
		c0.5-96.3-77.1-174.8-173.4-175.3c-58.8-0.3-111,28.5-142.8,72.9c-18-25.2-47.4-41.8-80.8-42c-13.4-0.1-26.3,2.5-38,7.3
		c-10.5-84-82-149.3-169-149.8c-62.3-0.3-117,32.6-147.3,82.2c-14.7-49.3-60.3-85.4-114.5-85.7c-57.3-0.3-105.4,39.5-117.8,93.1
		c-18.9-30.2-52.4-50.3-90.7-50.3c-9.3,0-18.2,1.2-26.8,3.4c2.5-13.4,3.8-27.2,3.8-41.4c0-124.2-100.7-224.9-224.9-224.9
		c-95.6,0-177.3,59.7-209.8,143.8c-25.5-16.6-56-26.3-88.7-26.3c-87.9,0-159.4,69.7-162.4,156.9c-3.3-0.5-6.6-0.7-10-0.7
		c-30.2,0-55.8,19.4-65.2,46.3c-21.9-25.5-54.3-41.7-90.5-41.9c-66.4-0.4-120.5,53.1-120.8,119.5c0,3.8,0.1,7.6,0.5,11.3
		c-16.7-12.8-37.5-20.5-60.2-20.6c-55.1-0.3-100.1,44.1-100.4,99.3C-63.2,1159.4-24,1202.2,26.5,1207.4z"/>
	<path class="st5" d="M1597.6,1281c14.7,40.8,19.1,86,10.7,131.7c-25.4,137.7-157.7,228.8-295.4,203.4
		c-84.1-15.5-150.8-70.9-184.2-143c-32.6,31.2-79.1,46.8-126.8,37.9c-19.2-3.5-36.9-10.7-52.3-20.7c-37.9,117.2-157.8,191-282.2,168
		c-89.1-16.5-158.3-78.4-188-157.5c-34.5,66.5-109.4,105.6-186.9,91.3c-81.9-15.1-139.9-85.1-142.9-165.1
		c-35.2,38-88.6,57.5-143.2,47.1c-59.8-11.4-105-55.6-120.5-110.3c-8.6,1.5-17.4,2.3-26.3,2.4c-85.2,0.5-154.6-68.2-155.1-153.4
		c-0.5-85.2,68.2-154.6,153.4-155.1c52-0.3,98.2,25.2,126.3,64.5c15.9-22.3,42-36.9,71.5-37.1c11.9-0.1,23.2,2.2,33.6,6.4
		c9.3-74.3,72.5-132,149.5-132.5c55.1-0.3,103.5,28.8,130.3,72.7c13-43.6,53.4-75.6,101.3-75.8c50.7-0.3,93.3,35,104.2,82.4
		c16.7-26.7,46.4-44.5,80.2-44.5c8.2,0,16.1,1,23.7,3c-2.2-11.9-3.4-24.1-3.4-36.6c0-109.9,89.1-199,199-199
		c84.6,0,156.8,52.8,185.6,127.2c22.6-14.7,49.5-23.3,78.5-23.3c77.7,0,141,61.7,143.7,138.8c2.9-0.4,5.9-0.7,8.9-0.7
		c26.7,0,49.3,17.1,57.6,41c19.4-22.5,48-36.9,80-37c58.7-0.3,106.6,47,106.9,105.7c0,3.4-0.1,6.7-0.4,10
		c14.8-11.3,33.2-18.1,53.2-18.2c48.8-0.3,88.6,39.1,88.8,87.8C1676.9,1238.4,1642.2,1276.3,1597.6,1281z"/>
	<circle class="st6" cx="461.9" cy="204.9" r="63"/>
	<circle class="st4" cx="298.7" cy="413.5" r="25.5"/>
	<circle class="st4" cx="153.9" cy="65.1" r="12.6"/>
	
		<ellipse transform="matrix(0.8157 -0.5785 0.5785 0.8157 129.5602 663.2958)" class="st4" cx="1105.7" cy="128.3" rx="25.5" ry="25.5"/>
	
		<ellipse transform="matrix(0.8157 -0.5785 0.5785 0.8157 72.5191 885.1669)" class="st6" cx="1425.4" cy="328.8" rx="12.6" ry="12.6"/>
	
		<ellipse transform="matrix(0.8157 -0.5785 0.5785 0.8157 -90.373 627.2001)" class="st6" cx="939.1" cy="455.4" rx="25.5" ry="25.5"/>
	
		<ellipse transform="matrix(0.8157 -0.5785 0.5785 0.8157 232.3098 892.1375)" class="st4" cx="1516.2" cy="81.5" rx="25.5" ry="25.5"/>
	
		<ellipse transform="matrix(0.8157 -0.5785 0.5785 0.8157 12.3072 742.3683)" class="st4" cx="1171.2" cy="351.9" rx="12.6" ry="12.6"/>
	<g class="st2">
		
			<rect x="682.9" y="204.3" transform="matrix(0.6961 -0.7179 0.7179 0.6961 -94.2618 619.2397)" class="st7" width="3" height="433.3"/>
	</g>
	<g class="st2">
		
			<rect x="708.8" y="268.7" transform="matrix(0.6961 -0.7179 0.7179 0.6961 -132.5649 657.3856)" class="st7" width="3" height="433.3"/>
	</g>
	<g class="st2">
		
			<rect x="458.8" y="352.7" transform="matrix(0.6961 -0.7179 0.7179 0.6961 -268.8363 503.4262)" class="st7" width="3" height="433.3"/>
	</g>
	<g class="st2">
		
			<rect x="1245.2" y="210.5" transform="matrix(0.6961 -0.7179 0.7179 0.6961 72.1829 1024.8279)" class="st7" width="3" height="433.3"/>
	</g>
	<g class="st2">
		<polygon class="st7" points="1803.1,352.6 1801,354.8 1490,53.1 1492.1,51 		"/>
	</g>
	<g class="st2">
		<g>
			
				<rect x="1251" y="-60.7" transform="matrix(0.6961 -0.7179 0.7179 0.6961 268.6266 946.5397)" class="st7" width="3" height="433.3"/>
		</g>
	</g>
</g>
</svg>
